<svg xmlns="http://www.w3.org/2000/svg" width="13" height="15"><path d="M12.568 13.034c0 1.084-.992 1.966-2.21 1.966H2.846c-1.217 0-2.21-.882-2.21-1.966V13l.86-9.727a.373.373 0 01.37-.339h1.812A2.936 2.936 0 016.602 0a2.936 2.936 0 012.924 2.934h1.812c.195 0 .355.146.37.339l.86 9.727v.034zM4.42 2.934h4.365A2.19 2.19 0 006.602.745a2.19 2.19 0 00-2.182 2.19zm7.406 10.116l-.828-9.37H9.526v1.307a.373.373 0 01-.37.372.373.373 0 01-.371-.372V3.679H4.42v1.308a.373.373 0 01-.371.372.373.373 0 01-.371-.372V3.679H2.207l-.829 9.368c.01.668.665 1.205 1.468 1.205h7.512c.804 0 1.459-.537 1.468-1.202z"/></svg>