<svg xmlns="http://www.w3.org/2000/svg" width="15" height="15"><path d="M9.233.554c.063-.2.275-.31.473-.248.202.06.313.273.25.47a.384.384 0 01-.363.264.358.358 0 01-.114-.018.371.371 0 01-.246-.468zM7.79.338a.374.374 0 01.414-.336.376.376 0 11-.035.75c-.012 0-.025-.003-.038-.003a.377.377 0 01-.34-.411zM4.93.777a.379.379 0 01.723-.223.379.379 0 01-.722.223zm5.667.273a.38.38 0 01.514-.148.375.375 0 01-.183.706.375.375 0 01-.331-.558zm-6.973.367a.375.375 0 01.148-.511.38.38 0 01.515.147.375.375 0 01-.332.558.377.377 0 01-.331-.194zm8.21.398a.381.381 0 01.533-.04.375.375 0 01-.246.661.375.375 0 01-.287-.621zm1.72 2.682a.38.38 0 01.682-.333.378.378 0 01-.34.544.384.384 0 01-.342-.21zm.752.822a.376.376 0 11.095.74.376.376 0 01-.095-.74zM15 7.095a.38.38 0 01-.36.395h-.019a.377.377 0 01-.019-.753.377.377 0 01.398.358zM6.338.413a.375.375 0 01.338-.411.376.376 0 11.076.747c-.013.003-.025.003-.038.003a.376.376 0 01-.376-.339zm7.529 11.033a.378.378 0 01-.521.122.375.375 0 01-.12-.517.38.38 0 01.52-.12c.178.11.234.342.12.515zM14.92 8.61a.378.378 0 01-.372.32c-.02 0-.038 0-.057-.003a.374.374 0 01-.319-.427.38.38 0 01.432-.317c.206.032.35.223.316.427zm-1.566-5.207a.383.383 0 01-.53-.066.374.374 0 01.066-.527.38.38 0 01.53.066.373.373 0 01-.066.527zM2.478 2.305a.375.375 0 01.041-.53.38.38 0 01.533.04.375.375 0 01-.287.621.37.37 0 01-.287-.131zM1.765 3.48a.373.373 0 01-.3-.605.379.379 0 01.53-.066.373.373 0 01.066.527.364.364 0 01-.296.144zm-.932 6.823a.381.381 0 01-.49-.22.376.376 0 01.225-.483.38.38 0 01.486.223.368.368 0 01-.22.48zm-.947-3.21a.38.38 0 01.758.038.377.377 0 01-.379.358H.246a.38.38 0 01-.36-.395zm1.774 3.96a.379.379 0 01-.318.577.378.378 0 01-.322-.179.372.372 0 01.12-.518.38.38 0 01.52.12zM.335 8.934a.376.376 0 01-.373-.32.38.38 0 01.751-.114.377.377 0 01-.318.43c-.02.003-.038.003-.06.003zM.12 5.591c.05-.2.259-.323.46-.27.203.05.326.258.272.458a.38.38 0 01-.46.27.374.374 0 01-.272-.458zm.53-1.427a.382.382 0 01.508-.173.376.376 0 01-.167.716.378.378 0 01-.34-.543zm13.895 5.92a.381.381 0 01-.356.244.376.376 0 11.13-.728.38.38 0 01.226.483zm-1.534 2.208a.374.374 0 01-.088.367 7.592 7.592 0 01-2.45 1.71 7.5 7.5 0 01-3.033.63 7.554 7.554 0 01-5.486-2.343l-.003-.004a.377.377 0 01.18-.62c2.635-.713 3.15-1.594 3.248-1.877a2.572 2.572 0 01-.328-.313C3.794 8.437 4.009 6.019 4.03 5.799c.079-1.672.855-2.49 1.493-2.883.723-.445 1.49-.492 1.783-.492h.146c.296 0 1.06.047 1.783.492.638.392 1.411 1.211 1.493 2.883.022.217.237 2.638-1.02 4.044a2.72 2.72 0 01-.21.213c.062.132.204.389.514.68.42.4 1.234.951 2.727 1.3.13.03.237.128.271.257zM5.616 9.344c.429.477 1 .715 1.745.721H7.4c.745-.009 1.316-.244 1.746-.724 1.07-1.195.836-3.454.833-3.476-.003-.006-.003-.016-.003-.022-.117-2.475-1.96-2.666-2.522-2.666H7.31c-.565 0-2.409.191-2.522 2.666-.004.006-.004.016-.004.022-.003.022-.233 2.287.83 3.479zm6.29 3.25c-1.994-.615-2.761-1.59-3.036-2.102-.42.21-.9.32-1.44.33h-.1a3.412 3.412 0 01-1.298-.264c-.246.524-.969 1.343-3.071 2.017a6.766 6.766 0 004.482 1.672 6.775 6.775 0 004.464-1.653z"/></svg>